<svg width="67" height="68" viewBox="0 0 67 68" fill="none" xmlns="http://www.w3.org/2000/svg">
<ellipse cx="33.5" cy="34.4207" rx="33.5" ry="33.4432" fill="white"/>
<path d="M48 46.8997H36.8609C35.7726 43.314 35.2285 39.5979 35.2285 35.7513C35.2285 31.8396 36.2207 28.7428 38.2053 26.461C40.2539 24.1139 43.2627 22.9404 47.2318 22.9404V28.4168C44.0309 28.4168 42.4305 30.4053 42.4305 34.3822V36.2403H48V46.8997ZM31.7715 46.8997H20.6325C19.5442 43.314 19 39.5979 19 35.7513C19 31.8396 19.9923 28.7428 21.9768 26.461C24.0254 24.1139 27.0342 22.9404 31.0033 22.9404V28.4168C27.8024 28.4168 26.202 30.4053 26.202 34.3822V36.2403H31.7715V46.8997Z" fill="#EEBB38"/>
</svg>
